<svg width="98" height="41" viewBox="0 0 98 41" fill="none" xmlns="http://www.w3.org/2000/svg">
<path d="M39.24 22.024L36.768 22H35.184V6.448H38.952C39.624 6.448 40.176 6.472 40.608 6.52C41.056 6.552 41.512 6.656 41.976 6.832C42.456 6.992 42.832 7.224 43.104 7.528C43.728 8.232 44.04 9.352 44.04 10.888C44.04 12.408 43.616 13.448 42.768 14.008C43.088 14.136 43.336 14.264 43.512 14.392C43.688 14.504 43.896 14.688 44.136 14.944C44.568 15.456 44.784 16.472 44.784 17.992C44.784 19.496 44.344 20.544 43.464 21.136C42.6 21.728 41.192 22.024 39.24 22.024ZM36.768 20.56L40.08 20.584C41.216 20.584 42.008 20.424 42.456 20.104C42.904 19.784 43.128 19.016 43.128 17.8C43.128 15.768 42.328 14.752 40.728 14.752H36.768V20.56ZM38.688 7.912H36.768V13.408H41.232C42.016 13.408 42.408 12.544 42.408 10.816C42.408 9.84 42.32 9.208 42.144 8.92C41.968 8.632 41.8 8.432 41.64 8.32C41.496 8.208 41.256 8.12 40.92 8.056C40.44 7.96 39.696 7.912 38.688 7.912Z" fill="black"/>
<line x1="51.1414" y1="11.6414" x2="47.1414" y2="15.6414" stroke="black" stroke-width="0.4"/>
<path d="M57.24 22.024L54.768 22H53.184V6.448H56.952C57.624 6.448 58.176 6.472 58.608 6.52C59.056 6.552 59.512 6.656 59.976 6.832C60.456 6.992 60.832 7.224 61.104 7.528C61.728 8.232 62.04 9.352 62.04 10.888C62.04 12.408 61.616 13.448 60.768 14.008C61.088 14.136 61.336 14.264 61.512 14.392C61.688 14.504 61.896 14.688 62.136 14.944C62.568 15.456 62.784 16.472 62.784 17.992C62.784 19.496 62.344 20.544 61.464 21.136C60.6 21.728 59.192 22.024 57.24 22.024ZM54.768 20.56L58.08 20.584C59.216 20.584 60.008 20.424 60.456 20.104C60.904 19.784 61.128 19.016 61.128 17.8C61.128 15.768 60.328 14.752 58.728 14.752H54.768V20.56ZM56.688 7.912H54.768V13.408H59.232C60.016 13.408 60.408 12.544 60.408 10.816C60.408 9.84 60.32 9.208 60.144 8.92C59.968 8.632 59.8 8.432 59.64 8.32C59.496 8.208 59.256 8.12 58.92 8.056C58.44 7.96 57.696 7.912 56.688 7.912Z" fill="black"/>
<path d="M3.12 38.012L1.884 38H1.092V30.224H2.976C3.312 30.224 3.588 30.236 3.804 30.26C4.028 30.276 4.256 30.328 4.488 30.416C4.728 30.496 4.916 30.612 5.052 30.764C5.364 31.116 5.52 31.676 5.52 32.444C5.52 33.204 5.308 33.724 4.884 34.004C5.044 34.068 5.168 34.132 5.256 34.196C5.344 34.252 5.448 34.344 5.568 34.472C5.784 34.728 5.892 35.236 5.892 35.996C5.892 36.748 5.672 37.272 5.232 37.568C4.8 37.864 4.096 38.012 3.12 38.012ZM1.884 37.28L3.54 37.292C4.108 37.292 4.504 37.212 4.728 37.052C4.952 36.892 5.064 36.508 5.064 35.9C5.064 34.884 4.664 34.376 3.864 34.376H1.884V37.28ZM2.844 30.956H1.884V33.704H4.116C4.508 33.704 4.704 33.272 4.704 32.408C4.704 31.92 4.66 31.604 4.572 31.46C4.484 31.316 4.4 31.216 4.32 31.16C4.248 31.104 4.128 31.06 3.96 31.028C3.72 30.98 3.348 30.956 2.844 30.956ZM11.6019 34.412L11.5899 35.84C11.5899 36.064 11.5939 36.272 11.6019 36.464L11.8659 37.928L11.8779 37.988H11.3499L11.3019 37.952L11.0139 37.256C10.2699 37.768 9.53794 38.036 8.81794 38.06C8.31394 38.06 7.92594 37.928 7.65394 37.664C7.38994 37.392 7.25794 37.012 7.25794 36.524C7.25794 35.852 7.44594 35.396 7.82194 35.156C8.19794 34.916 8.71394 34.796 9.36994 34.796C9.44994 34.796 9.93394 34.82 10.8219 34.868V34.088C10.8219 33.56 10.7219 33.196 10.5219 32.996C10.3299 32.788 10.0579 32.684 9.70594 32.684C9.35394 32.684 8.67394 32.792 7.66594 33.008L7.55794 32.432C8.54994 32.136 9.26194 31.988 9.69394 31.988C10.3499 31.988 10.8699 32.192 11.2539 32.6C11.4859 32.848 11.6019 33.452 11.6019 34.412ZM10.8219 35.468L9.56194 35.42C8.92194 35.42 8.50594 35.484 8.31394 35.612C8.12194 35.74 8.02594 35.996 8.02594 36.38C8.02594 36.756 8.08994 37.016 8.21794 37.16C8.34594 37.296 8.56594 37.364 8.87794 37.364C9.19794 37.364 9.56994 37.3 9.99394 37.172C10.4259 37.044 10.7019 36.896 10.8219 36.728V35.468ZM13.5619 29.168H14.3059V32.636C14.7859 32.212 15.2779 32 15.7819 32C16.2939 32 16.7019 32.076 17.0059 32.228C17.3179 32.372 17.5499 32.592 17.7019 32.888C17.9739 33.408 18.1099 34.104 18.1099 34.976C18.1099 35.528 18.0419 36.012 17.9059 36.428C17.7699 36.844 17.6059 37.156 17.4139 37.364C17.2299 37.572 17.0179 37.74 16.7779 37.868C16.4339 38.052 16.0939 38.144 15.7579 38.144C15.5499 38.144 15.3779 38.128 15.2419 38.096C15.1059 38.072 15.0019 38.052 14.9299 38.036C14.8579 38.028 14.7699 38.008 14.6659 37.976C14.5699 37.936 14.4939 37.908 14.4379 37.892C14.3899 37.876 14.3099 37.844 14.1979 37.796C14.0939 37.748 14.0259 37.716 13.9939 37.7C13.7539 37.58 13.6099 37.512 13.5619 37.496V29.168ZM14.3059 37.196C14.7539 37.356 15.1779 37.436 15.5779 37.436C15.9779 37.436 16.2819 37.388 16.4899 37.292C16.6979 37.188 16.8539 37.072 16.9579 36.944C17.0619 36.816 17.1419 36.632 17.1979 36.392C17.2619 36.072 17.2939 35.656 17.2939 35.144C17.2939 34.192 17.2139 33.548 17.0539 33.212C16.8939 32.876 16.4939 32.708 15.8539 32.708C15.2139 32.708 14.6979 32.932 14.3059 33.38V37.196ZM23.7833 34.412L23.7713 35.84C23.7713 36.064 23.7753 36.272 23.7833 36.464L24.0473 37.928L24.0593 37.988H23.5313L23.4833 37.952L23.1953 37.256C22.4513 37.768 21.7193 38.036 20.9993 38.06C20.4953 38.06 20.1073 37.928 19.8353 37.664C19.5713 37.392 19.4393 37.012 19.4393 36.524C19.4393 35.852 19.6273 35.396 20.0033 35.156C20.3793 34.916 20.8953 34.796 21.5513 34.796C21.6313 34.796 22.1153 34.82 23.0033 34.868V34.088C23.0033 33.56 22.9033 33.196 22.7033 32.996C22.5113 32.788 22.2393 32.684 21.8873 32.684C21.5353 32.684 20.8553 32.792 19.8473 33.008L19.7393 32.432C20.7313 32.136 21.4433 31.988 21.8753 31.988C22.5313 31.988 23.0513 32.192 23.4353 32.6C23.6673 32.848 23.7833 33.452 23.7833 34.412ZM23.0033 35.468L21.7433 35.42C21.1033 35.42 20.6873 35.484 20.4953 35.612C20.3033 35.74 20.2073 35.996 20.2073 36.38C20.2073 36.756 20.2713 37.016 20.3993 37.16C20.5273 37.296 20.7473 37.364 21.0593 37.364C21.3793 37.364 21.7513 37.3 22.1753 37.172C22.6073 37.044 22.8833 36.896 23.0033 36.728V35.468ZM25.7313 30.116H26.5713V30.98H25.7313V30.116ZM25.7793 32.096H26.5113V38.468C26.5113 39.14 26.2993 39.616 25.8753 39.896C25.4593 40.176 24.8593 40.352 24.0753 40.424L24.1713 39.872C24.9073 39.712 25.3713 39.512 25.5633 39.272C25.6593 39.144 25.7193 39.024 25.7433 38.912C25.7673 38.808 25.7793 38.66 25.7793 38.468V32.096ZM28.5008 32.096H29.2448V38H28.5008V32.096ZM28.4528 30.116H29.2928V30.98H28.4528V30.116ZM34.9661 37.268C34.7581 37.492 34.4981 37.692 34.1861 37.868C33.8741 38.036 33.5181 38.12 33.1181 38.12C32.7181 38.12 32.3621 38.048 32.0501 37.904C31.7461 37.752 31.5181 37.528 31.3661 37.232C31.0941 36.712 30.9581 36.016 30.9581 35.144C30.9581 34.592 31.0261 34.112 31.1621 33.704C31.2981 33.288 31.4581 32.976 31.6421 32.768C31.8341 32.552 32.0501 32.38 32.2901 32.252C32.6341 32.068 32.9741 31.976 33.3101 31.976C33.6461 31.976 34.1301 32.12 34.7621 32.408V29.168H35.5061V36.476L35.7941 38H35.3021L35.2541 37.964L34.9661 37.268ZM32.0741 33.248C31.8741 33.624 31.7741 34.244 31.7741 35.108C31.7741 35.972 31.8541 36.572 32.0141 36.908C32.1741 37.244 32.5701 37.412 33.2021 37.412C33.8421 37.412 34.3621 37.188 34.7621 36.74V32.924C34.3621 32.764 33.8661 32.684 33.2741 32.684C32.6821 32.684 32.2821 32.872 32.0741 33.248ZM41.8856 34.148C41.8856 34.436 41.8616 34.736 41.8136 35.048H38.0456C38.0776 35.928 38.2256 36.536 38.4896 36.872C38.7536 37.2 39.2216 37.364 39.8936 37.364C40.3976 37.364 40.9856 37.256 41.6576 37.04L41.7296 37.64C41.5456 37.712 41.4016 37.764 41.2976 37.796C41.2016 37.82 41.0976 37.852 40.9856 37.892C40.8736 37.924 40.7896 37.948 40.7336 37.964C40.6776 37.98 40.5976 38 40.4936 38.024C40.3896 38.048 40.3016 38.064 40.2296 38.072C40.0136 38.096 39.8296 38.108 39.6776 38.108C38.9256 38.108 38.3336 37.844 37.9016 37.316C37.4696 36.788 37.2536 36.052 37.2536 35.108C37.2536 34.588 37.3176 34.132 37.4456 33.74C37.5736 33.34 37.7256 33.036 37.9016 32.828C38.0776 32.612 38.2896 32.44 38.5376 32.312C38.9056 32.112 39.3056 32.004 39.7376 31.988C41.1696 31.996 41.8856 32.716 41.8856 34.148ZM41.1296 33.956C41.1296 33.476 41.0096 33.14 40.7696 32.948C40.5296 32.756 40.1736 32.66 39.7016 32.66C39.2296 32.66 38.8416 32.788 38.5376 33.044C38.2336 33.292 38.0776 33.756 38.0696 34.436H41.0936C41.1176 34.252 41.1296 34.092 41.1296 33.956ZM48.6023 38.012L47.3663 38H46.5743V30.224H48.4583C48.7943 30.224 49.0703 30.236 49.2863 30.26C49.5103 30.276 49.7383 30.328 49.9703 30.416C50.2103 30.496 50.3983 30.612 50.5343 30.764C50.8463 31.116 51.0023 31.676 51.0023 32.444C51.0023 33.204 50.7903 33.724 50.3663 34.004C50.5263 34.068 50.6503 34.132 50.7383 34.196C50.8263 34.252 50.9303 34.344 51.0503 34.472C51.2663 34.728 51.3743 35.236 51.3743 35.996C51.3743 36.748 51.1543 37.272 50.7143 37.568C50.2823 37.864 49.5783 38.012 48.6023 38.012ZM47.3663 37.28L49.0223 37.292C49.5903 37.292 49.9863 37.212 50.2103 37.052C50.4343 36.892 50.5463 36.508 50.5463 35.9C50.5463 34.884 50.1463 34.376 49.3463 34.376H47.3663V37.28ZM48.3263 30.956H47.3663V33.704H49.5983C49.9903 33.704 50.1863 33.272 50.1863 32.408C50.1863 31.92 50.1423 31.604 50.0543 31.46C49.9663 31.316 49.8823 31.216 49.8023 31.16C49.7303 31.104 49.6103 31.06 49.4423 31.028C49.2023 30.98 48.8303 30.956 48.3263 30.956ZM57.0843 34.412L57.0723 35.84C57.0723 36.064 57.0763 36.272 57.0843 36.464L57.3483 37.928L57.3603 37.988H56.8323L56.7843 37.952L56.4963 37.256C55.7523 37.768 55.0203 38.036 54.3003 38.06C53.7963 38.06 53.4083 37.928 53.1363 37.664C52.8723 37.392 52.7403 37.012 52.7403 36.524C52.7403 35.852 52.9283 35.396 53.3043 35.156C53.6803 34.916 54.1963 34.796 54.8523 34.796C54.9323 34.796 55.4163 34.82 56.3043 34.868V34.088C56.3043 33.56 56.2043 33.196 56.0043 32.996C55.8123 32.788 55.5403 32.684 55.1883 32.684C54.8363 32.684 54.1563 32.792 53.1483 33.008L53.0403 32.432C54.0323 32.136 54.7443 31.988 55.1763 31.988C55.8323 31.988 56.3523 32.192 56.7363 32.6C56.9683 32.848 57.0843 33.452 57.0843 34.412ZM56.3043 35.468L55.0443 35.42C54.4043 35.42 53.9883 35.484 53.7963 35.612C53.6043 35.74 53.5083 35.996 53.5083 36.38C53.5083 36.756 53.5723 37.016 53.7003 37.16C53.8283 37.296 54.0483 37.364 54.3603 37.364C54.6803 37.364 55.0523 37.3 55.4763 37.172C55.9083 37.044 56.1843 36.896 56.3043 36.728V35.468ZM63.2922 38H62.5122V33.776C62.4962 33.36 62.4162 33.076 62.2722 32.924C62.1362 32.764 61.8802 32.684 61.5042 32.684C61.1282 32.684 60.7762 32.764 60.4482 32.924C60.1282 33.076 59.9402 33.22 59.8842 33.356V38H59.1162V33.62L58.9122 32.156H59.4762L59.5122 32.192L59.6922 32.792C59.9962 32.592 60.2202 32.448 60.3642 32.36C60.5162 32.272 60.7242 32.184 60.9882 32.096C61.2522 32.008 61.5202 31.964 61.7922 31.964C62.4642 31.964 62.9122 32.232 63.1362 32.768C63.4242 32.576 63.6482 32.436 63.8082 32.348C64.2562 32.092 64.7202 31.964 65.2002 31.964C65.6802 31.964 66.0482 32.1 66.3042 32.372C66.5682 32.644 66.7042 33.112 66.7122 33.776V38H65.9322V33.776C65.9162 33.36 65.8362 33.076 65.6922 32.924C65.5562 32.764 65.2962 32.684 64.9122 32.684C64.5362 32.684 64.1882 32.764 63.8682 32.924C63.5482 33.076 63.3562 33.22 63.2922 33.356V38ZM72.617 33.896C72.617 34.52 72.433 35.016 72.065 35.384C71.705 35.744 71.213 35.924 70.589 35.924C70.397 35.924 70.145 35.896 69.833 35.84L69.161 36.776L72.173 36.764C72.573 36.764 72.881 36.916 73.097 37.22C73.313 37.516 73.421 37.9 73.421 38.372C73.421 39.036 73.157 39.544 72.629 39.896C72.109 40.248 71.449 40.424 70.649 40.424C69.849 40.424 69.257 40.284 68.873 40.004C68.497 39.732 68.309 39.296 68.309 38.696L69.449 37.52C69.009 37.52 68.717 37.46 68.573 37.34C68.437 37.22 68.369 37.032 68.369 36.776C68.697 36.408 69.009 36.028 69.305 35.636C69.009 35.412 68.813 35.168 68.717 34.904C68.621 34.632 68.573 34.288 68.573 33.872C68.573 33.256 68.765 32.772 69.149 32.42C69.533 32.068 70.037 31.892 70.661 31.892C71.077 31.892 71.453 31.98 71.789 32.156L73.121 32.168L72.965 32.792L72.281 32.804C72.505 33.172 72.617 33.536 72.617 33.896ZM70.577 39.812C70.953 39.812 71.217 39.804 71.369 39.788C71.521 39.78 71.681 39.748 71.849 39.692C72.025 39.644 72.165 39.576 72.269 39.488C72.517 39.288 72.637 38.96 72.629 38.504C72.629 38.056 72.577 37.78 72.473 37.676C72.377 37.564 72.121 37.508 71.705 37.508H70.085L69.101 38.816C69.101 39.256 69.273 39.54 69.617 39.668C69.881 39.764 70.201 39.812 70.577 39.812ZM70.589 35.324C71.469 35.324 71.909 34.86 71.909 33.932C71.909 33.404 71.801 33.036 71.585 32.828C71.377 32.612 71.053 32.504 70.613 32.504C70.173 32.504 69.845 32.616 69.629 32.84C69.413 33.056 69.301 33.424 69.293 33.944C69.293 34.864 69.725 35.324 70.589 35.324ZM74.7647 29.168H75.5087V32.636C75.9887 32.212 76.4807 32 76.9847 32C77.4967 32 77.9047 32.076 78.2087 32.228C78.5207 32.372 78.7527 32.592 78.9047 32.888C79.1767 33.408 79.3127 34.104 79.3127 34.976C79.3127 35.528 79.2447 36.012 79.1087 36.428C78.9727 36.844 78.8087 37.156 78.6167 37.364C78.4327 37.572 78.2207 37.74 77.9807 37.868C77.6367 38.052 77.2967 38.144 76.9607 38.144C76.7527 38.144 76.5807 38.128 76.4447 38.096C76.3087 38.072 76.2047 38.052 76.1327 38.036C76.0607 38.028 75.9727 38.008 75.8687 37.976C75.7727 37.936 75.6967 37.908 75.6407 37.892C75.5927 37.876 75.5127 37.844 75.4007 37.796C75.2967 37.748 75.2287 37.716 75.1967 37.7C74.9567 37.58 74.8127 37.512 74.7647 37.496V29.168ZM75.5087 37.196C75.9567 37.356 76.3807 37.436 76.7807 37.436C77.1807 37.436 77.4847 37.388 77.6927 37.292C77.9007 37.188 78.0567 37.072 78.1607 36.944C78.2647 36.816 78.3447 36.632 78.4007 36.392C78.4647 36.072 78.4967 35.656 78.4967 35.144C78.4967 34.192 78.4167 33.548 78.2567 33.212C78.0967 32.876 77.6967 32.708 77.0567 32.708C76.4167 32.708 75.9007 32.932 75.5087 33.38V37.196ZM84.2782 32.876C84.1582 32.82 84.0102 32.772 83.8342 32.732C83.6662 32.692 83.4302 32.672 83.1262 32.672C82.8222 32.672 82.5542 32.724 82.3222 32.828C82.0982 32.924 81.9302 33.092 81.8182 33.332C81.7142 33.564 81.6462 33.804 81.6142 34.052C81.5822 34.292 81.5662 34.624 81.5662 35.048C81.5662 35.952 81.6662 36.576 81.8662 36.92C82.0742 37.264 82.5262 37.436 83.2222 37.436C83.5982 37.436 83.9022 37.388 84.1342 37.292C84.3662 37.196 84.5382 37.036 84.6502 36.812C84.7622 36.58 84.8342 36.34 84.8662 36.092C84.8982 35.836 84.9142 35.536 84.9142 35.192C84.9142 34.84 84.9102 34.592 84.9022 34.448C84.9022 34.296 84.8902 34.124 84.8662 33.932C84.8422 33.732 84.8062 33.58 84.7582 33.476C84.7182 33.372 84.6582 33.26 84.5782 33.14C84.4982 33.02 84.3982 32.932 84.2782 32.876ZM83.2582 32C83.8822 32 84.3662 32.084 84.7102 32.252C85.0542 32.412 85.3102 32.712 85.4782 33.152C85.6462 33.592 85.7302 34.16 85.7302 34.856C85.7302 35.552 85.6542 36.108 85.5022 36.524C85.3582 36.94 85.1622 37.26 84.9142 37.484C84.4342 37.916 83.8742 38.132 83.2342 38.132C82.2982 38.132 81.6502 37.912 81.2902 37.472C80.9302 37.032 80.7502 36.228 80.7502 35.06C80.7502 34.5 80.8262 34.012 80.9782 33.596C81.1302 33.18 81.3342 32.864 81.5902 32.648C82.0862 32.216 82.6422 32 83.2582 32ZM87.2346 37.184C87.7306 37.376 88.1946 37.472 88.6266 37.472C89.0586 37.472 89.4266 37.384 89.7306 37.208C90.0426 37.024 90.1986 36.784 90.1986 36.488C90.1986 36.192 90.0946 35.956 89.8866 35.78C89.6786 35.596 89.4266 35.448 89.1306 35.336C88.8346 35.224 88.5386 35.108 88.2426 34.988C87.9546 34.86 87.7066 34.684 87.4986 34.46C87.2906 34.228 87.1866 33.944 87.1866 33.608C87.1866 33.08 87.3706 32.676 87.7386 32.396C88.1066 32.108 88.5666 31.964 89.1186 31.964C89.6786 31.964 90.2146 32.056 90.7266 32.24L90.5706 32.792C90.1706 32.656 89.7186 32.588 89.2146 32.588C88.3826 32.588 87.9666 32.912 87.9666 33.56C87.9666 33.976 88.3266 34.32 89.0466 34.592C89.3506 34.704 89.6506 34.828 89.9466 34.964C90.2506 35.092 90.5066 35.28 90.7146 35.528C90.9306 35.776 91.0386 36.076 91.0386 36.428C91.0386 36.964 90.8066 37.376 90.3426 37.664C89.8786 37.952 89.3426 38.096 88.7346 38.096C88.1266 38.096 87.5666 37.988 87.0546 37.772L87.2346 37.184ZM96.9422 34.148C96.9422 34.436 96.9182 34.736 96.8702 35.048H93.1022C93.1342 35.928 93.2822 36.536 93.5462 36.872C93.8102 37.2 94.2782 37.364 94.9502 37.364C95.4542 37.364 96.0422 37.256 96.7142 37.04L96.7862 37.64C96.6022 37.712 96.4582 37.764 96.3542 37.796C96.2582 37.82 96.1542 37.852 96.0422 37.892C95.9302 37.924 95.8462 37.948 95.7902 37.964C95.7342 37.98 95.6542 38 95.5502 38.024C95.4462 38.048 95.3582 38.064 95.2862 38.072C95.0702 38.096 94.8862 38.108 94.7342 38.108C93.9822 38.108 93.3902 37.844 92.9582 37.316C92.5262 36.788 92.3102 36.052 92.3102 35.108C92.3102 34.588 92.3742 34.132 92.5022 33.74C92.6302 33.34 92.7822 33.036 92.9582 32.828C93.1342 32.612 93.3462 32.44 93.5942 32.312C93.9622 32.112 94.3622 32.004 94.7942 31.988C96.2262 31.996 96.9422 32.716 96.9422 34.148ZM96.1862 33.956C96.1862 33.476 96.0662 33.14 95.8262 32.948C95.5862 32.756 95.2302 32.66 94.7582 32.66C94.2862 32.66 93.8982 32.788 93.5942 33.044C93.2902 33.292 93.1342 33.756 93.1262 34.436H96.1502C96.1742 34.252 96.1862 34.092 96.1862 33.956Z" fill="black"/>
</svg>
